<svg xmlns="http://www.w3.org/2000/svg" viewBox="0 0 400 300"><rect width="400" height="300" fill="#fef3c7" rx="12"/><ellipse cx="200" cy="240" rx="100" ry="20" fill="#e7e5e4" stroke="#d6d3d1" stroke-width="1"/><path d="M140 140 L145 220 Q145 240 200 240 Q255 240 255 220 L260 140 Z" fill="#ffffff" stroke="#d6d3d1" stroke-width="2"/><ellipse cx="200" cy="145" rx="55" ry="12" fill="#3e2723"/><ellipse cx="200" cy="143" rx="50" ry="8" fill="#d4a574" opacity="0.6"/><path d="M260 160 Q290 160 290 190 Q290 220 260 220" fill="none" stroke="#d6d3d1" stroke-width="6" stroke-linecap="round"/><path d="M180 130 Q175 115 185 105 Q195 95 190 80" fill="none" stroke="#d6d3d1" stroke-width="2" opacity="0.5"/><path d="M200 128 Q195 110 205 100 Q215 90 210 75" fill="none" stroke="#d6d3d1" stroke-width="2" opacity="0.4"/><path d="M220 130 Q215 115 225 105 Q235 95 230 80" fill="none" stroke="#d6d3d1" stroke-width="2" opacity="0.3"/></svg>