<svg xmlns="http://www.w3.org/2000/svg" viewBox="0 0 400 300"><rect width="400" height="300" fill="#f0fdf4" rx="12"/><ellipse cx="200" cy="240" rx="100" ry="20" fill="#e7e5e4" stroke="#d6d3d1" stroke-width="1"/><path d="M135 140 L140 220 Q140 240 200 240 Q260 240 260 220 L265 140 Z" fill="#ffffff" stroke="#d6d3d1" stroke-width="2"/><ellipse cx="200" cy="145" rx="60" ry="14" fill="#4ade80"/><ellipse cx="200" cy="143" rx="55" ry="10" fill="#22c55e" opacity="0.5"/><path d="M265 160 Q295 160 295 190 Q295 220 265 220" fill="none" stroke="#d6d3d1" stroke-width="6" stroke-linecap="round"/><path d="M175 128 Q170 110 180 100 Q190 90 185 75" fill="none" stroke="#d6d3d1" stroke-width="2" opacity="0.5"/><path d="M200 125 Q195 108 205 98 Q215 88 210 72" fill="none" stroke="#d6d3d1" stroke-width="2" opacity="0.4"/><path d="M225 128 Q220 110 230 100 Q240 90 235 75" fill="none" stroke="#d6d3d1" stroke-width="2" opacity="0.3"/></svg>